# xmcd CD database file
# Copyright (C) 1993-1998 Ti Kan
#
# Track frame offsets:
#	182
#	16250
#	30627
#	46535
#	60025
#	74295
#	97127
#	107645
#	128102
#	143790
#	156795
#	176730
#	187655
#	200497
#
# Disc length: 2856 seconds
#
# Revision: 1
# Processed by: cddbd v1.4b41PL1 Copyright (c) Steve Scherf et al.
# Submitted via: CDValet v3.01 - Copyright (c) 1997 Greg Leichner
#
DISCID=af0b260e
DTITLE=Quarteto Em Cy - Minha Historia
DYEAR=1900
DGENRE=
TTITLE0=Saindo De Mim/ Come ar De Novo
TTITLE1=Querelas Do Brasil
TTITLE2=Porta Aberta
TTITLE3=Canto De Ossanha
TTITLE4=Lua,Lua,Lua,Lua/ Canto Do Povo De Um Lugar
TTITLE5=O Ultimo Trem/ Ponta De Areia 
TTITLE6=Nada Sera Como Antes
TTITLE7=Sabia
TTITLE8=Sapato Velho
TTITLE9=O Cio Da Terra 
TTITLE10=Mulheres De Atenas
TTITLE11=Come aria Tudo Outra Vez
TTITLE12=Antes Que Seja Tarde
TTITLE13=Plataforma
EXTD=
EXTT0=
EXTT1=
EXTT2=
EXTT3=
EXTT4=
EXTT5=
EXTT6=
EXTT7=
EXTT8=
EXTT9=
EXTT10=
EXTT11=
EXTT12=
EXTT13=
PLAYORDER=
